<mxfile host="app.diagrams.net" agent="Mozilla/5.0 (Windows NT 10.0; Win64; x64) AppleWebKit/537.36 (KHTML, like Gecko) Chrome/131.0.0.0 Safari/537.36 Edg/131.0.0.0" version="26.0.16">
  <diagram name="第 1 页" id="3plGxiOdknOFmbBUjiku">
    <mxGraphModel dx="1426" dy="747" grid="1" gridSize="10" guides="1" tooltips="1" connect="1" arrows="1" fold="1" page="1" pageScale="1" pageWidth="827" pageHeight="1169" math="0" shadow="0">
      <root>
        <mxCell id="0" />
        <mxCell id="1" parent="0" />
        <mxCell id="_yjK3DbL1QxtqCuwe5kX-12" value="外部数据源" style="whiteSpace=wrap;strokeWidth=2;" vertex="1" parent="1">
          <mxGeometry x="2233" y="20" width="140" height="54" as="geometry" />
        </mxCell>
        <mxCell id="_yjK3DbL1QxtqCuwe5kX-13" value="数据处理与分析层" style="rounded=1;arcSize=20;strokeWidth=2" vertex="1" parent="1">
          <mxGeometry x="1596" y="147" width="158" height="54" as="geometry" />
        </mxCell>
        <mxCell id="_yjK3DbL1QxtqCuwe5kX-14" value="风险识别与决策层" style="rhombus;strokeWidth=2;whiteSpace=wrap;" vertex="1" parent="1">
          <mxGeometry x="1118" y="274" width="182" height="182" as="geometry" />
        </mxCell>
        <mxCell id="_yjK3DbL1QxtqCuwe5kX-15" value="业务处理层" style="whiteSpace=wrap;strokeWidth=2;" vertex="1" parent="1">
          <mxGeometry x="913" y="529" width="140" height="54" as="geometry" />
        </mxCell>
        <mxCell id="_yjK3DbL1QxtqCuwe5kX-16" value="客户服务层" style="whiteSpace=wrap;strokeWidth=2;" vertex="1" parent="1">
          <mxGeometry x="520" y="656" width="140" height="54" as="geometry" />
        </mxCell>
        <mxCell id="_yjK3DbL1QxtqCuwe5kX-17" value="系统管理与支持层" style="whiteSpace=wrap;strokeWidth=2;" vertex="1" parent="1">
          <mxGeometry x="258" y="783" width="188" height="54" as="geometry" />
        </mxCell>
        <mxCell id="_yjK3DbL1QxtqCuwe5kX-18" value="腾讯天御反电诈数据" style="whiteSpace=wrap;strokeWidth=2;" vertex="1" parent="1">
          <mxGeometry x="1804" y="147" width="204" height="54" as="geometry" />
        </mxCell>
        <mxCell id="_yjK3DbL1QxtqCuwe5kX-19" value="中国银联“断卡先锋”数据" style="whiteSpace=wrap;strokeWidth=2;" vertex="1" parent="1">
          <mxGeometry x="2058" y="147" width="237" height="54" as="geometry" />
        </mxCell>
        <mxCell id="_yjK3DbL1QxtqCuwe5kX-20" value="长沙市政务数据" style="whiteSpace=wrap;strokeWidth=2;" vertex="1" parent="1">
          <mxGeometry x="2344" y="147" width="172" height="54" as="geometry" />
        </mxCell>
        <mxCell id="_yjK3DbL1QxtqCuwe5kX-21" value="数据清洗模块" style="whiteSpace=wrap;strokeWidth=2;" vertex="1" parent="1">
          <mxGeometry x="1350" y="338" width="156" height="54" as="geometry" />
        </mxCell>
        <mxCell id="_yjK3DbL1QxtqCuwe5kX-22" value="数据整合模块" style="whiteSpace=wrap;strokeWidth=2;" vertex="1" parent="1">
          <mxGeometry x="1556" y="338" width="156" height="54" as="geometry" />
        </mxCell>
        <mxCell id="_yjK3DbL1QxtqCuwe5kX-23" value="风险特征提取模块" style="whiteSpace=wrap;strokeWidth=2;" vertex="1" parent="1">
          <mxGeometry x="1762" y="338" width="188" height="54" as="geometry" />
        </mxCell>
        <mxCell id="_yjK3DbL1QxtqCuwe5kX-24" value="风险模型构建模块" style="whiteSpace=wrap;strokeWidth=2;" vertex="1" parent="1">
          <mxGeometry x="2000" y="338" width="188" height="54" as="geometry" />
        </mxCell>
        <mxCell id="_yjK3DbL1QxtqCuwe5kX-25" value="风险评估规则引擎" style="whiteSpace=wrap;strokeWidth=2;" vertex="1" parent="1">
          <mxGeometry x="1103" y="529" width="188" height="54" as="geometry" />
        </mxCell>
        <mxCell id="_yjK3DbL1QxtqCuwe5kX-26" value="实时风险监测模块" style="whiteSpace=wrap;strokeWidth=2;" vertex="1" parent="1">
          <mxGeometry x="1341" y="529" width="188" height="54" as="geometry" />
        </mxCell>
        <mxCell id="_yjK3DbL1QxtqCuwe5kX-27" value="风险预警与处置模块" style="whiteSpace=wrap;strokeWidth=2;" vertex="1" parent="1">
          <mxGeometry x="1579" y="529" width="204" height="54" as="geometry" />
        </mxCell>
        <mxCell id="_yjK3DbL1QxtqCuwe5kX-28" value="决策支持模块" style="whiteSpace=wrap;strokeWidth=2;" vertex="1" parent="1">
          <mxGeometry x="1833" y="529" width="156" height="54" as="geometry" />
        </mxCell>
        <mxCell id="_yjK3DbL1QxtqCuwe5kX-29" value="开户业务流程自动化模块" style="whiteSpace=wrap;strokeWidth=2;" vertex="1" parent="1">
          <mxGeometry x="710" y="656" width="236" height="54" as="geometry" />
        </mxCell>
        <mxCell id="_yjK3DbL1QxtqCuwe5kX-30" value="提额业务流程自动化模块" style="whiteSpace=wrap;strokeWidth=2;" vertex="1" parent="1">
          <mxGeometry x="996" y="656" width="236" height="54" as="geometry" />
        </mxCell>
        <mxCell id="_yjK3DbL1QxtqCuwe5kX-31" value="客户尽职调查模块" style="whiteSpace=wrap;strokeWidth=2;" vertex="1" parent="1">
          <mxGeometry x="1282" y="656" width="188" height="54" as="geometry" />
        </mxCell>
        <mxCell id="_yjK3DbL1QxtqCuwe5kX-32" value="业务规则引擎模块" style="whiteSpace=wrap;strokeWidth=2;" vertex="1" parent="1">
          <mxGeometry x="1520" y="656" width="188" height="54" as="geometry" />
        </mxCell>
        <mxCell id="_yjK3DbL1QxtqCuwe5kX-33" value="业务操作日志模块" style="whiteSpace=wrap;strokeWidth=2;" vertex="1" parent="1">
          <mxGeometry x="1758" y="656" width="188" height="54" as="geometry" />
        </mxCell>
        <mxCell id="_yjK3DbL1QxtqCuwe5kX-34" value="客户信息管理模块" style="whiteSpace=wrap;strokeWidth=2;" vertex="1" parent="1">
          <mxGeometry x="496" y="783" width="188" height="54" as="geometry" />
        </mxCell>
        <mxCell id="_yjK3DbL1QxtqCuwe5kX-35" value="客户交互界面模块" style="whiteSpace=wrap;strokeWidth=2;" vertex="1" parent="1">
          <mxGeometry x="734" y="783" width="188" height="54" as="geometry" />
        </mxCell>
        <mxCell id="_yjK3DbL1QxtqCuwe5kX-36" value="客户反馈处理模块" style="whiteSpace=wrap;strokeWidth=2;" vertex="1" parent="1">
          <mxGeometry x="972" y="783" width="188" height="54" as="geometry" />
        </mxCell>
        <mxCell id="_yjK3DbL1QxtqCuwe5kX-37" value="系统配置管理模块" style="whiteSpace=wrap;strokeWidth=2;" vertex="1" parent="1">
          <mxGeometry x="20" y="887" width="188" height="54" as="geometry" />
        </mxCell>
        <mxCell id="_yjK3DbL1QxtqCuwe5kX-38" value="用户权限管理模块" style="whiteSpace=wrap;strokeWidth=2;" vertex="1" parent="1">
          <mxGeometry x="258" y="887" width="188" height="54" as="geometry" />
        </mxCell>
        <mxCell id="_yjK3DbL1QxtqCuwe5kX-39" value="数据安全管理模块" style="whiteSpace=wrap;strokeWidth=2;" vertex="1" parent="1">
          <mxGeometry x="496" y="887" width="188" height="54" as="geometry" />
        </mxCell>
        <mxCell id="_yjK3DbL1QxtqCuwe5kX-40" value="系统监控与运维模块" style="whiteSpace=wrap;strokeWidth=2;" vertex="1" parent="1">
          <mxGeometry x="734" y="887" width="204" height="54" as="geometry" />
        </mxCell>
        <mxCell id="_yjK3DbL1QxtqCuwe5kX-41" value="数据接入" style="curved=1;startArrow=none;endArrow=block;exitX=0;exitY=0.63;entryX=0.5;entryY=0;rounded=0;" edge="1" parent="1" source="_yjK3DbL1QxtqCuwe5kX-12" target="_yjK3DbL1QxtqCuwe5kX-13">
          <mxGeometry relative="1" as="geometry">
            <Array as="points">
              <mxPoint x="1675" y="111" />
            </Array>
          </mxGeometry>
        </mxCell>
        <mxCell id="_yjK3DbL1QxtqCuwe5kX-42" value="风险评估数据" style="curved=1;startArrow=none;endArrow=block;exitX=0;exitY=0.7;entryX=0.5;entryY=0;rounded=0;" edge="1" parent="1" source="_yjK3DbL1QxtqCuwe5kX-13" target="_yjK3DbL1QxtqCuwe5kX-14">
          <mxGeometry relative="1" as="geometry">
            <Array as="points">
              <mxPoint x="1209" y="238" />
            </Array>
          </mxGeometry>
        </mxCell>
        <mxCell id="_yjK3DbL1QxtqCuwe5kX-43" value="业务操作指令" style="curved=1;startArrow=none;endArrow=block;exitX=0;exitY=0.78;entryX=0.5;entryY=0;rounded=0;" edge="1" parent="1" source="_yjK3DbL1QxtqCuwe5kX-14" target="_yjK3DbL1QxtqCuwe5kX-15">
          <mxGeometry relative="1" as="geometry">
            <Array as="points">
              <mxPoint x="983" y="493" />
            </Array>
          </mxGeometry>
        </mxCell>
        <mxCell id="_yjK3DbL1QxtqCuwe5kX-44" value="客户服务接口" style="curved=1;startArrow=none;endArrow=block;exitX=0;exitY=0.71;entryX=0.5;entryY=0;rounded=0;" edge="1" parent="1" source="_yjK3DbL1QxtqCuwe5kX-15" target="_yjK3DbL1QxtqCuwe5kX-16">
          <mxGeometry relative="1" as="geometry">
            <Array as="points">
              <mxPoint x="590" y="620" />
            </Array>
          </mxGeometry>
        </mxCell>
        <mxCell id="_yjK3DbL1QxtqCuwe5kX-45" value="系统管理接口" style="curved=1;startArrow=none;endArrow=block;exitX=0;exitY=0.85;entryX=0.5;entryY=0;rounded=0;" edge="1" parent="1" source="_yjK3DbL1QxtqCuwe5kX-16" target="_yjK3DbL1QxtqCuwe5kX-17">
          <mxGeometry relative="1" as="geometry">
            <Array as="points">
              <mxPoint x="352" y="747" />
            </Array>
          </mxGeometry>
        </mxCell>
        <mxCell id="_yjK3DbL1QxtqCuwe5kX-46" value="" style="curved=1;startArrow=none;endArrow=block;exitX=0;exitY=0.71;entryX=0.5;entryY=0;rounded=0;" edge="1" parent="1" source="_yjK3DbL1QxtqCuwe5kX-12" target="_yjK3DbL1QxtqCuwe5kX-18">
          <mxGeometry relative="1" as="geometry">
            <Array as="points">
              <mxPoint x="1906" y="111" />
            </Array>
          </mxGeometry>
        </mxCell>
        <mxCell id="_yjK3DbL1QxtqCuwe5kX-47" value="" style="curved=1;startArrow=none;endArrow=block;exitX=0.12;exitY=1;entryX=0.5;entryY=0;rounded=0;" edge="1" parent="1" source="_yjK3DbL1QxtqCuwe5kX-12" target="_yjK3DbL1QxtqCuwe5kX-19">
          <mxGeometry relative="1" as="geometry">
            <Array as="points">
              <mxPoint x="2176" y="111" />
            </Array>
          </mxGeometry>
        </mxCell>
        <mxCell id="_yjK3DbL1QxtqCuwe5kX-48" value="" style="curved=1;startArrow=none;endArrow=block;exitX=0.89;exitY=1;entryX=0.5;entryY=0;rounded=0;" edge="1" parent="1" source="_yjK3DbL1QxtqCuwe5kX-12" target="_yjK3DbL1QxtqCuwe5kX-20">
          <mxGeometry relative="1" as="geometry">
            <Array as="points">
              <mxPoint x="2430" y="111" />
            </Array>
          </mxGeometry>
        </mxCell>
        <mxCell id="_yjK3DbL1QxtqCuwe5kX-49" value="" style="curved=1;startArrow=none;endArrow=block;exitX=0;exitY=0.88;entryX=0.5;entryY=0;rounded=0;" edge="1" parent="1" source="_yjK3DbL1QxtqCuwe5kX-13" target="_yjK3DbL1QxtqCuwe5kX-21">
          <mxGeometry relative="1" as="geometry">
            <Array as="points">
              <mxPoint x="1428" y="238" />
            </Array>
          </mxGeometry>
        </mxCell>
        <mxCell id="_yjK3DbL1QxtqCuwe5kX-50" value="" style="curved=1;startArrow=none;endArrow=block;exitX=0.39;exitY=1;entryX=0.5;entryY=0;rounded=0;" edge="1" parent="1" source="_yjK3DbL1QxtqCuwe5kX-13" target="_yjK3DbL1QxtqCuwe5kX-22">
          <mxGeometry relative="1" as="geometry">
            <Array as="points">
              <mxPoint x="1634" y="238" />
            </Array>
          </mxGeometry>
        </mxCell>
        <mxCell id="_yjK3DbL1QxtqCuwe5kX-51" value="" style="curved=1;startArrow=none;endArrow=block;exitX=0.99;exitY=1;entryX=0.5;entryY=0;rounded=0;" edge="1" parent="1" source="_yjK3DbL1QxtqCuwe5kX-13" target="_yjK3DbL1QxtqCuwe5kX-23">
          <mxGeometry relative="1" as="geometry">
            <Array as="points">
              <mxPoint x="1856" y="238" />
            </Array>
          </mxGeometry>
        </mxCell>
        <mxCell id="_yjK3DbL1QxtqCuwe5kX-52" value="" style="curved=1;startArrow=none;endArrow=block;exitX=1;exitY=0.72;entryX=0.5;entryY=0;rounded=0;" edge="1" parent="1" source="_yjK3DbL1QxtqCuwe5kX-13" target="_yjK3DbL1QxtqCuwe5kX-24">
          <mxGeometry relative="1" as="geometry">
            <Array as="points">
              <mxPoint x="2094" y="238" />
            </Array>
          </mxGeometry>
        </mxCell>
        <mxCell id="_yjK3DbL1QxtqCuwe5kX-53" value="" style="curved=1;startArrow=none;endArrow=block;exitX=0.45;exitY=1;entryX=0.5;entryY=0;rounded=0;" edge="1" parent="1" source="_yjK3DbL1QxtqCuwe5kX-14" target="_yjK3DbL1QxtqCuwe5kX-25">
          <mxGeometry relative="1" as="geometry">
            <Array as="points">
              <mxPoint x="1197" y="493" />
            </Array>
          </mxGeometry>
        </mxCell>
        <mxCell id="_yjK3DbL1QxtqCuwe5kX-54" value="" style="curved=1;startArrow=none;endArrow=block;exitX=1;exitY=0.78;entryX=0.5;entryY=0;rounded=0;" edge="1" parent="1" source="_yjK3DbL1QxtqCuwe5kX-14" target="_yjK3DbL1QxtqCuwe5kX-26">
          <mxGeometry relative="1" as="geometry">
            <Array as="points">
              <mxPoint x="1435" y="493" />
            </Array>
          </mxGeometry>
        </mxCell>
        <mxCell id="_yjK3DbL1QxtqCuwe5kX-55" value="" style="curved=1;startArrow=none;endArrow=block;exitX=1;exitY=0.64;entryX=0.5;entryY=0;rounded=0;" edge="1" parent="1" source="_yjK3DbL1QxtqCuwe5kX-14" target="_yjK3DbL1QxtqCuwe5kX-27">
          <mxGeometry relative="1" as="geometry">
            <Array as="points">
              <mxPoint x="1681" y="493" />
            </Array>
          </mxGeometry>
        </mxCell>
        <mxCell id="_yjK3DbL1QxtqCuwe5kX-56" value="" style="curved=1;startArrow=none;endArrow=block;exitX=1;exitY=0.59;entryX=0.5;entryY=0;rounded=0;" edge="1" parent="1" source="_yjK3DbL1QxtqCuwe5kX-14" target="_yjK3DbL1QxtqCuwe5kX-28">
          <mxGeometry relative="1" as="geometry">
            <Array as="points">
              <mxPoint x="1911" y="493" />
            </Array>
          </mxGeometry>
        </mxCell>
        <mxCell id="_yjK3DbL1QxtqCuwe5kX-57" value="" style="curved=1;startArrow=none;endArrow=block;exitX=0.03;exitY=1;entryX=0.5;entryY=0;rounded=0;" edge="1" parent="1" source="_yjK3DbL1QxtqCuwe5kX-15" target="_yjK3DbL1QxtqCuwe5kX-29">
          <mxGeometry relative="1" as="geometry">
            <Array as="points">
              <mxPoint x="828" y="620" />
            </Array>
          </mxGeometry>
        </mxCell>
        <mxCell id="_yjK3DbL1QxtqCuwe5kX-58" value="" style="curved=1;startArrow=none;endArrow=block;exitX=0.9;exitY=1;entryX=0.5;entryY=0;rounded=0;" edge="1" parent="1" source="_yjK3DbL1QxtqCuwe5kX-15" target="_yjK3DbL1QxtqCuwe5kX-30">
          <mxGeometry relative="1" as="geometry">
            <Array as="points">
              <mxPoint x="1114" y="620" />
            </Array>
          </mxGeometry>
        </mxCell>
        <mxCell id="_yjK3DbL1QxtqCuwe5kX-59" value="" style="curved=1;startArrow=none;endArrow=block;exitX=1;exitY=0.71;entryX=0.5;entryY=0;rounded=0;" edge="1" parent="1" source="_yjK3DbL1QxtqCuwe5kX-15" target="_yjK3DbL1QxtqCuwe5kX-31">
          <mxGeometry relative="1" as="geometry">
            <Array as="points">
              <mxPoint x="1376" y="620" />
            </Array>
          </mxGeometry>
        </mxCell>
        <mxCell id="_yjK3DbL1QxtqCuwe5kX-60" value="" style="curved=1;startArrow=none;endArrow=block;exitX=1;exitY=0.63;entryX=0.5;entryY=0;rounded=0;" edge="1" parent="1" source="_yjK3DbL1QxtqCuwe5kX-15" target="_yjK3DbL1QxtqCuwe5kX-32">
          <mxGeometry relative="1" as="geometry">
            <Array as="points">
              <mxPoint x="1614" y="620" />
            </Array>
          </mxGeometry>
        </mxCell>
        <mxCell id="_yjK3DbL1QxtqCuwe5kX-61" value="" style="curved=1;startArrow=none;endArrow=block;exitX=1;exitY=0.59;entryX=0.5;entryY=0;rounded=0;" edge="1" parent="1" source="_yjK3DbL1QxtqCuwe5kX-15" target="_yjK3DbL1QxtqCuwe5kX-33">
          <mxGeometry relative="1" as="geometry">
            <Array as="points">
              <mxPoint x="1852" y="620" />
            </Array>
          </mxGeometry>
        </mxCell>
        <mxCell id="_yjK3DbL1QxtqCuwe5kX-62" value="" style="curved=1;startArrow=none;endArrow=block;exitX=0.5;exitY=1;entryX=0.5;entryY=0;rounded=0;" edge="1" parent="1" source="_yjK3DbL1QxtqCuwe5kX-16" target="_yjK3DbL1QxtqCuwe5kX-34">
          <mxGeometry relative="1" as="geometry">
            <Array as="points" />
          </mxGeometry>
        </mxCell>
        <mxCell id="_yjK3DbL1QxtqCuwe5kX-63" value="" style="curved=1;startArrow=none;endArrow=block;exitX=1;exitY=0.85;entryX=0.5;entryY=0;rounded=0;" edge="1" parent="1" source="_yjK3DbL1QxtqCuwe5kX-16" target="_yjK3DbL1QxtqCuwe5kX-35">
          <mxGeometry relative="1" as="geometry">
            <Array as="points">
              <mxPoint x="828" y="747" />
            </Array>
          </mxGeometry>
        </mxCell>
        <mxCell id="_yjK3DbL1QxtqCuwe5kX-64" value="" style="curved=1;startArrow=none;endArrow=block;exitX=1;exitY=0.67;entryX=0.5;entryY=0;rounded=0;" edge="1" parent="1" source="_yjK3DbL1QxtqCuwe5kX-16" target="_yjK3DbL1QxtqCuwe5kX-36">
          <mxGeometry relative="1" as="geometry">
            <Array as="points">
              <mxPoint x="1066" y="747" />
            </Array>
          </mxGeometry>
        </mxCell>
        <mxCell id="_yjK3DbL1QxtqCuwe5kX-65" value="" style="curved=1;startArrow=none;endArrow=block;exitX=0;exitY=0.88;entryX=0.5;entryY=0;rounded=0;" edge="1" parent="1" source="_yjK3DbL1QxtqCuwe5kX-17" target="_yjK3DbL1QxtqCuwe5kX-37">
          <mxGeometry relative="1" as="geometry">
            <Array as="points">
              <mxPoint x="114" y="862" />
            </Array>
          </mxGeometry>
        </mxCell>
        <mxCell id="_yjK3DbL1QxtqCuwe5kX-66" value="" style="curved=1;startArrow=none;endArrow=block;exitX=0.5;exitY=1;entryX=0.5;entryY=0;rounded=0;" edge="1" parent="1" source="_yjK3DbL1QxtqCuwe5kX-17" target="_yjK3DbL1QxtqCuwe5kX-38">
          <mxGeometry relative="1" as="geometry">
            <Array as="points" />
          </mxGeometry>
        </mxCell>
        <mxCell id="_yjK3DbL1QxtqCuwe5kX-67" value="" style="curved=1;startArrow=none;endArrow=block;exitX=1;exitY=0.88;entryX=0.5;entryY=0;rounded=0;" edge="1" parent="1" source="_yjK3DbL1QxtqCuwe5kX-17" target="_yjK3DbL1QxtqCuwe5kX-39">
          <mxGeometry relative="1" as="geometry">
            <Array as="points">
              <mxPoint x="590" y="862" />
            </Array>
          </mxGeometry>
        </mxCell>
        <mxCell id="_yjK3DbL1QxtqCuwe5kX-68" value="" style="curved=1;startArrow=none;endArrow=block;exitX=1;exitY=0.69;entryX=0.5;entryY=0;rounded=0;" edge="1" parent="1" source="_yjK3DbL1QxtqCuwe5kX-17" target="_yjK3DbL1QxtqCuwe5kX-40">
          <mxGeometry relative="1" as="geometry">
            <Array as="points">
              <mxPoint x="836" y="862" />
            </Array>
          </mxGeometry>
        </mxCell>
      </root>
    </mxGraphModel>
  </diagram>
</mxfile>
